<svg width="20" height="21" viewBox="0 0 20 21" fill="none" xmlns="http://www.w3.org/2000/svg">
<path id="Combined shape 15711" fill-rule="evenodd" clip-rule="evenodd" d="M9.99994 0.998535C4.4862 0.998535 0 5.48457 0 10.9985C0 16.513 4.4862 20.9991 9.99994 20.9991C15.5138 20.9991 20 16.513 20 10.9985C20 5.48457 15.5138 0.998535 9.99994 0.998535ZM14.8076 11.7684H10.7692V15.9985C10.7692 16.4233 10.4246 16.7674 9.99994 16.7674C9.57538 16.7674 9.2308 16.4233 9.2308 15.9985V11.7684H5.1923C4.76772 11.7684 4.42301 11.4233 4.42301 10.9985C4.42301 10.5738 4.76772 10.2292 5.1923 10.2292H9.2308V6.38348C9.2308 5.95821 9.57538 5.61466 9.99994 5.61466C10.4246 5.61466 10.7692 5.95821 10.7692 6.38348V10.2292H14.8076C15.2323 10.2292 15.5769 10.5738 15.5769 10.9985C15.5769 11.4233 15.2323 11.7684 14.8076 11.7684Z" fill="#3FDBB1"/>
</svg>
